<?xml version="1.0" standalone="no"?>
<!DOCTYPE svg PUBLIC "-//W3C//DTD SVG 20010904//EN"
 "http://www.w3.org/TR/2001/REC-SVG-20010904/DTD/svg10.dtd">
<svg version="1.0" xmlns="http://www.w3.org/2000/svg"
 width="116.000000pt" height="83.000000pt" viewBox="0 0 116.000000 83.000000"
 preserveAspectRatio="xMidYMid meet">
<metadata>
Created by potrace 1.10, written by Peter Selinger 2001-2011
</metadata>
<g transform="translate(0.000000,83.000000) scale(0.100000,-0.100000)"
stroke="none">
<path d="M826 615 c-113 -40 -163 -191 -95 -289 39 -58 93 -86 164 -86 108 0
185 72 193 179 10 145 -124 245 -262 196z m117 -16 c152 -42 170 -252 27 -321
-121 -59 -251 26 -247 163 3 82 51 140 132 160 43 10 46 10 88 -2z"/>
<path d="M355 303 c-143 -118 -271 -223 -285 -234 -25 -18 -17 -18 497 -19
l522 0 3 85 c2 47 0 85 -4 85 -5 0 -8 -4 -8 -9 0 -16 -104 -61 -156 -67 -64
-8 -146 15 -203 56 -84 61 -136 188 -114 273 7 23 11 43 10 44 -1 1 -119 -95
-262 -214z m226 102 c2 -59 0 -52 36 -116 39 -69 109 -132 170 -153 65 -22
161 -20 225 4 29 11 54 20 55 20 1 0 1 -17 0 -38 l-2 -37 -462 -3 c-267 -1
-463 2 -463 7 0 5 17 21 37 36 21 16 47 36 58 46 11 10 49 42 84 71 36 29 105
88 155 130 50 42 94 77 99 77 4 1 8 -19 8 -44z"/>
</g>
</svg>
